<svg xmlns="http://www.w3.org/2000/svg" xmlns:xlink="http://www.w3.org/1999/xlink" viewBox="0 0 254 254">
  <defs>
    <style>
      .cls-1 {
        clip-path: url(#clip-iPhone_6_7_8_3);
      }

      .cls-2, .cls-6, .cls-9 {
        fill: #fff;
      }

      .cls-3 {
        fill: #0096f1;
      }

      .cls-4, .cls-8 {
        fill: #2a6284;
      }

      .cls-5 {
        fill: none;
      }

      .cls-6 {
        stroke: #2a6284;
        stroke-width: 5px;
      }

      .cls-7, .cls-8 {
        stroke: none;
      }
    </style>
    <clipPath id="clip-iPhone_6_7_8_3">
      <rect width="254" height="254"/>
    </clipPath>
  </defs>
  <g id="iPhone_6_7_8_3" data-name="iPhone 6/7/8 – 3" class="cls-1">
    <rect class="cls-9" width="254" height="254"/>
    <g id="Group_3" data-name="Group 3" transform="translate(-17.029 2.839)">
      <g id="Path_6" data-name="Path 6" class="cls-2" transform="matrix(0.899, 0.438, -0.438, 0.899, 127.909, -2.839)">
        <path class="cls-7" d="M 61.50000381469727 218.5 C 53.5339469909668 218.5 45.80750274658203 216.9404144287109 38.53532791137695 213.8645324707031 C 35.03985595703125 212.3860626220703 31.66829872131348 210.5560302734375 28.5142993927002 208.4252014160156 C 25.38959312438965 206.314208984375 22.45121002197266 203.8898010253906 19.78071022033691 201.2192993164062 C 17.11021041870117 198.548828125 14.68579864501953 195.6104125976562 12.57479858398438 192.4857330322266 C 10.44400501251221 189.3317108154297 8.613945960998535 185.9601440429688 7.135504722595215 182.4647064208984 C 4.084591388702393 175.2515258789062 2.525426864624023 167.591552734375 2.500314235687256 159.6940307617188 C 2.686890125274658 158.5015411376953 3.658264636993408 152.1614990234375 4.61588716506958 143.4489135742188 C 5.594798564910889 134.5426788330078 6.761710643768311 121.2457046508789 6.761710643768311 108.4765625 C 6.761710643768311 101.4213562011719 6.388798713684082 89.97255706787109 4.612239837646484 75.49626159667969 C 3.658107042312622 67.72150421142578 2.715582370758057 62.44107055664062 2.500432729721069 61.27170181274414 C 2.530032634735107 53.38654708862305 4.089097023010254 45.73781585693359 7.135504722595215 38.53532409667969 C 8.613945960998535 35.03985214233398 10.44400501251221 31.66829490661621 12.57479858398438 28.5142936706543 C 14.68579864501953 25.38958740234375 17.11021041870117 22.45120620727539 19.78071022033691 19.78070640563965 C 22.45121002197266 17.11020660400391 25.38959312438965 14.68579387664795 28.5142993927002 12.57479381561279 C 31.66829872131348 10.44400024414062 35.03985595703125 8.613941192626953 38.53532791137695 7.135499954223633 C 45.80750274658203 4.059617519378662 53.5339469909668 2.5 61.50000381469727 2.5 C 69.466064453125 2.5 77.1925048828125 4.059617519378662 84.46468353271484 7.135499954223633 C 87.96015167236328 8.613941192626953 91.33171081542969 10.44400024414062 94.48571014404297 12.57479381561279 C 97.61041259765625 14.68579387664795 100.5487976074219 17.11020660400391 103.2192993164062 19.78070640563965 C 105.8898010253906 22.45120620727539 108.314208984375 25.38958740234375 110.4252090454102 28.5142936706543 C 112.5560073852539 31.66829490661621 114.3860626220703 35.03985214233398 115.864501953125 38.53532409667969 C 118.9403839111328 45.80749893188477 120.5000076293945 53.53393936157227 120.5000076293945 61.5 L 120.5000076293945 61.76652908325195 L 120.5562133789062 62.02705764770508 C 120.5681228637695 62.08250045776367 121.7697372436523 67.69473266601562 122.9551773071289 76.19911956787109 C 124.0466232299805 84.02896881103516 125.3476486206055 95.98464965820312 125.3476486206055 108.4765625 C 125.3476486206055 115.3910293579102 124.9305038452148 126.9700012207031 122.9431533813477 142.8656158447266 C 121.7537384033203 152.3789672851562 120.5527420043945 158.9849090576172 120.5407409667969 159.0505218505859 L 120.5000076293945 159.2734069824219 L 120.5000076293945 159.5 C 120.5000076293945 167.466064453125 118.9403839111328 175.1925048828125 115.864501953125 182.4647064208984 C 114.3860626220703 185.9601440429688 112.5560073852539 189.3317108154297 110.4252090454102 192.4857330322266 C 108.314208984375 195.6104125976562 105.8898010253906 198.548828125 103.2192993164062 201.2192993164062 C 100.5487976074219 203.8898010253906 97.61041259765625 206.314208984375 94.48571014404297 208.4252014160156 C 91.33171081542969 210.5560302734375 87.96015167236328 212.3860626220703 84.46468353271484 213.8645324707031 C 77.1925048828125 216.9404144287109 69.466064453125 218.5 61.50000381469727 218.5 Z"/>
        <path class="cls-8" d="M 61.49999237060547 5 C 53.87033081054688 5 46.47156524658203 6.4931640625 39.50919342041016 9.438003540039062 C 36.16239166259766 10.85356140136719 32.93405914306641 12.60589599609375 29.91379547119141 14.64633178710938 C 26.92095947265625 16.66827392578125 24.10646057128906 18.99046325683594 21.5484619140625 21.5484619140625 C 18.99049377441406 24.10643005371094 16.66825866699219 26.92092895507812 14.6463623046875 29.91380310058594 C 12.60589599609375 32.93403625488281 10.85356140136719 36.16239929199219 9.437995910644531 39.50917053222656 C 6.550674438476562 46.33558654785156 5.058883666992188 53.58094787597656 5.001708984375 61.05267333984375 C 5.284477233886719 62.61346435546875 6.185630798339844 67.79283142089844 7.0936279296875 75.19172668457031 C 8.885597229003906 89.79339599609375 9.261726379394531 101.3516311645508 9.261726379394531 108.4765701293945 C 9.261726379394531 121.3589324951172 8.086662292480469 134.7536926269531 7.100929260253906 143.7220764160156 C 6.170761108398438 152.1848754882812 5.250961303710938 158.2785339355469 5.001251220703125 159.8832397460938 C 5.050346374511719 167.3776550292969 6.542411804199219 174.6448669433594 9.437995910644531 181.4907989501953 C 10.85356140136719 184.8376007080078 12.60589599609375 188.0659332275391 14.6463623046875 191.0861968994141 C 16.66825866699219 194.0790405273438 18.99049377441406 196.8935394287109 21.5484619140625 199.4515380859375 C 24.10646057128906 202.0095062255859 26.92095947265625 204.3317260742188 29.91379547119141 206.3536376953125 C 32.93405914306641 208.3941040039062 36.16239166259766 210.1464385986328 39.50919342041016 211.5619964599609 C 46.47156524658203 214.5068359375 53.87033081054688 216 61.49999237060547 216 C 69.12966156005859 216 76.52842712402344 214.5068359375 83.49082946777344 211.5619964599609 C 86.83759307861328 210.1464385986328 90.06596374511719 208.3941040039062 93.08619689941406 206.3536376953125 C 96.07906341552734 204.3317260742188 98.89356231689453 202.0095062255859 101.451530456543 199.4515380859375 C 104.0095291137695 196.8935394287109 106.3317260742188 194.0790405273438 108.3536605834961 191.0861968994141 C 110.3940963745117 188.0659332275391 112.1464309692383 184.8376007080078 113.5619964599609 181.4907989501953 C 116.5068283081055 174.5284423828125 117.9999923706055 167.1296691894531 117.9999923706055 159.5 L 118.0000915527344 159.0468292236328 L 118.0813598632812 158.6015625 C 118.0933303833008 158.5360717773438 119.2907943725586 151.9421081542969 120.4715576171875 142.482666015625 C 122.4354248046875 126.7496337890625 122.8476638793945 115.3060684204102 122.8476638793945 108.4765701293945 C 122.8476638793945 96.14836883544922 121.5636291503906 84.33566284179688 120.4864654541016 76.59689331054688 C 119.3135604858398 68.17047119140625 118.1240310668945 62.60823059082031 118.1123962402344 62.55413818359375 L 117.9999923706055 62.03306579589844 L 117.9999923706055 61.5 C 117.9999923706055 53.87033081054688 116.5068283081055 46.47157287597656 113.5619964599609 39.50917053222656 C 112.1464309692383 36.16239929199219 110.3940963745117 32.93403625488281 108.3536605834961 29.91380310058594 C 106.3317260742188 26.92092895507812 104.0095291137695 24.10643005371094 101.451530456543 21.5484619140625 C 98.89356231689453 18.99046325683594 96.07906341552734 16.66827392578125 93.08619689941406 14.64633178710938 C 90.06596374511719 12.60589599609375 86.83759307861328 10.85356140136719 83.49082946777344 9.438003540039062 C 76.52842712402344 6.4931640625 69.12966156005859 5 61.49999237060547 5 M 61.49999237060547 0 C 95.46553039550781 0 122.9999923706055 27.53446960449219 122.9999923706055 61.5 C 122.9999923706055 61.5 127.8476638793945 83.9765625 127.8476638793945 108.4765701293945 C 127.8476638793945 132.9765625 122.9999923706055 159.5 122.9999923706055 159.5 C 122.9999923706055 193.4654998779297 95.46553039550781 221 61.49999237060547 221 C 27.53449249267578 221 -7.62939453125e-06 193.4654998779297 -7.62939453125e-06 159.5 C -7.62939453125e-06 159.5 4.261726379394531 132.9765625 4.261726379394531 108.4765701293945 C 4.261726379394531 83.9765625 -7.62939453125e-06 61.5 -7.62939453125e-06 61.5 C -7.62939453125e-06 27.53446960449219 27.53449249267578 0 61.49999237060547 0 Z"/>
      </g>
      <path id="Path_7" data-name="Path 7" class="cls-3" d="M48.94,0C75.969,0,97.88,23.8,97.88,53.166a235.843,235.843,0,0,1,3.858,40.611c0,21.18-3.858,44.109-3.858,44.109,0,29.363-21.911,53.166-48.94,53.166S0,167.249,0,137.886c0,0,3.391-22.929,3.391-44.109A267.131,267.131,0,0,0,0,53.166C0,23.8,21.911,0,48.94,0Z" transform="matrix(0.899, 0.438, -0.438, 0.899, 132.724, 17.07)"/>
      <g id="baseline-pool-24px" transform="translate(95.076 138.076)">
        <path id="Path_4" data-name="Path 4" class="cls-4" d="M36.873,34.386a6.67,6.67,0,0,1-3.8-1.116,3.273,3.273,0,0,0-2.005-.628,3.131,3.131,0,0,0-2.005.628,7.032,7.032,0,0,1-7.6,0,3.273,3.273,0,0,0-2.005-.628,3.131,3.131,0,0,0-2.005.628,6.785,6.785,0,0,1-3.819,1.116,6.67,6.67,0,0,1-3.8-1.116,3.166,3.166,0,0,0-2.005-.628,3.166,3.166,0,0,0-2.005.628A6.785,6.785,0,0,1,2,34.386V30.9a3.131,3.131,0,0,0,2.005-.628,6.785,6.785,0,0,1,3.819-1.116,6.67,6.67,0,0,1,3.8,1.116,3.131,3.131,0,0,0,2.005.628,3.131,3.131,0,0,0,2.005-.628,6.785,6.785,0,0,1,3.819-1.116,6.67,6.67,0,0,1,3.8,1.116,3.273,3.273,0,0,0,2.005.628,3.166,3.166,0,0,0,2.005-.628,7.032,7.032,0,0,1,7.6,0,3.131,3.131,0,0,0,2.005.628Zm0-7.846a6.67,6.67,0,0,1-3.8-1.116,3.273,3.273,0,0,0-2.005-.628,3.131,3.131,0,0,0-2.005.628,7.032,7.032,0,0,1-7.6,0,3.273,3.273,0,0,0-2.005-.628,3.131,3.131,0,0,0-2.005.628,6.67,6.67,0,0,1-3.8,1.116,6.67,6.67,0,0,1-3.8-1.116A3.273,3.273,0,0,0,7.841,24.8a3.166,3.166,0,0,0-2.005.628A6.9,6.9,0,0,1,2,26.539V23.052a3.131,3.131,0,0,0,2.005-.628,6.67,6.67,0,0,1,3.8-1.116,6.67,6.67,0,0,1,3.8,1.116,3.273,3.273,0,0,0,2.005.628,3.131,3.131,0,0,0,2.005-.628,6.67,6.67,0,0,1,3.8-1.116,6.67,6.67,0,0,1,3.8,1.116,3.273,3.273,0,0,0,2.005.628,3.166,3.166,0,0,0,2.005-.628,7.032,7.032,0,0,1,7.6,0,3.273,3.273,0,0,0,2.005.628v3.487ZM13.63,18.693a3.131,3.131,0,0,0,2.005-.628,6.785,6.785,0,0,1,3.819-1.116,6.67,6.67,0,0,1,3.8,1.116,3.273,3.273,0,0,0,2.005.628,3.166,3.166,0,0,0,2.005-.628c.209-.122.453-.262.715-.4L16.786,6.487c-2.7-2.7-5.2-3.5-9.555-3.487V7.359c3.173-.017,5.039.68,6.975,2.615l1.744,1.744-5.667,5.667a9.541,9.541,0,0,1,1.343.68A3.131,3.131,0,0,0,13.63,18.693Z" transform="translate(1.487 2.231)"/>
        <circle id="Ellipse_1" data-name="Ellipse 1" class="cls-4" cx="4.359" cy="4.359" r="4.359" transform="translate(24.411 5.231)"/>
        <path id="Path_5" data-name="Path 5" class="cls-5" d="M0,0H41.848V41.848H0Z"/>
      </g>
      <g id="Ellipse_4" data-name="Ellipse 4" class="cls-6" transform="translate(171.491 52.491)">
        <circle class="cls-7" cx="42.509" cy="42.509" r="42.509"/>
        <circle class="cls-5" cx="42.509" cy="42.509" r="40.009"/>
      </g>
      <circle id="Ellipse_5" data-name="Ellipse 5" class="cls-3" cx="30.851" cy="30.851" r="30.851" transform="translate(183.149 64.149)"/>
    </g>
  </g>
</svg>
