<svg xmlns="http://www.w3.org/2000/svg" xmlns:xlink="http://www.w3.org/1999/xlink" viewBox="0 0 254 254">
  <defs>
    <style>
      .cls-1 {
        clip-path: url(#clip-iPhone_6_7_8_1);
      }

      .cls-2, .cls-7 {
        fill: #fff;
      }

      .cls-2 {
        stroke: #2a6284;
        stroke-width: 5px;
      }

      .cls-3 {
        fill: #0096f1;
      }

      .cls-4 {
        fill: #2a6284;
      }

      .cls-5 {
        fill: none;
      }

      .cls-6 {
        stroke: none;
      }
    </style>
    <clipPath id="clip-iPhone_6_7_8_1">
      <rect width="254" height="254"/>
    </clipPath>
  </defs>
  <g id="iPhone_6_7_8_1" data-name="iPhone 6/7/8 – 1" class="cls-1">
    <rect class="cls-7" width="254" height="254"/>
    <g id="Group_1" data-name="Group 1" transform="translate(23)">
      <g id="Ellipse_2" data-name="Ellipse 2" class="cls-2" transform="translate(21 44)">
        <circle class="cls-6" cx="83" cy="83" r="83"/>
        <circle class="cls-5" cx="83" cy="83" r="80.5"/>
      </g>
      <circle id="Ellipse_3" data-name="Ellipse 3" class="cls-3" cx="70" cy="70" r="70" transform="translate(34 57)"/>
      <g id="baseline-pool-24px" transform="translate(83 106)">
        <path id="Path_4" data-name="Path 4" class="cls-4" d="M36.873,34.386a6.67,6.67,0,0,1-3.8-1.116,3.273,3.273,0,0,0-2.005-.628,3.131,3.131,0,0,0-2.005.628,7.032,7.032,0,0,1-7.6,0,3.273,3.273,0,0,0-2.005-.628,3.131,3.131,0,0,0-2.005.628,6.785,6.785,0,0,1-3.819,1.116,6.67,6.67,0,0,1-3.8-1.116,3.166,3.166,0,0,0-2.005-.628,3.166,3.166,0,0,0-2.005.628A6.785,6.785,0,0,1,2,34.386V30.9a3.131,3.131,0,0,0,2.005-.628,6.785,6.785,0,0,1,3.819-1.116,6.67,6.67,0,0,1,3.8,1.116,3.131,3.131,0,0,0,2.005.628,3.131,3.131,0,0,0,2.005-.628,6.785,6.785,0,0,1,3.819-1.116,6.67,6.67,0,0,1,3.8,1.116,3.273,3.273,0,0,0,2.005.628,3.166,3.166,0,0,0,2.005-.628,7.032,7.032,0,0,1,7.6,0,3.131,3.131,0,0,0,2.005.628Zm0-7.846a6.67,6.67,0,0,1-3.8-1.116,3.273,3.273,0,0,0-2.005-.628,3.131,3.131,0,0,0-2.005.628,7.032,7.032,0,0,1-7.6,0,3.273,3.273,0,0,0-2.005-.628,3.131,3.131,0,0,0-2.005.628,6.67,6.67,0,0,1-3.8,1.116,6.67,6.67,0,0,1-3.8-1.116A3.273,3.273,0,0,0,7.841,24.8a3.166,3.166,0,0,0-2.005.628A6.9,6.9,0,0,1,2,26.539V23.052a3.131,3.131,0,0,0,2.005-.628,6.67,6.67,0,0,1,3.8-1.116,6.67,6.67,0,0,1,3.8,1.116,3.273,3.273,0,0,0,2.005.628,3.131,3.131,0,0,0,2.005-.628,6.67,6.67,0,0,1,3.8-1.116,6.67,6.67,0,0,1,3.8,1.116,3.273,3.273,0,0,0,2.005.628,3.166,3.166,0,0,0,2.005-.628,7.032,7.032,0,0,1,7.6,0,3.273,3.273,0,0,0,2.005.628v3.487ZM13.63,18.693a3.131,3.131,0,0,0,2.005-.628,6.785,6.785,0,0,1,3.819-1.116,6.67,6.67,0,0,1,3.8,1.116,3.273,3.273,0,0,0,2.005.628,3.166,3.166,0,0,0,2.005-.628c.209-.122.453-.262.715-.4L16.786,6.487c-2.7-2.7-5.2-3.5-9.555-3.487V7.359c3.173-.017,5.039.68,6.975,2.615l1.744,1.744-5.667,5.667a9.541,9.541,0,0,1,1.343.68A3.131,3.131,0,0,0,13.63,18.693Z" transform="translate(1.487 2.231)"/>
        <circle id="Ellipse_1" data-name="Ellipse 1" class="cls-4" cx="4.359" cy="4.359" r="4.359" transform="translate(24.411 5.231)"/>
        <path id="Path_5" data-name="Path 5" class="cls-5" d="M0,0H41.848V41.848H0Z"/>
      </g>
    </g>
  </g>
</svg>
