<?xml version="1.0" standalone="no"?>
<!DOCTYPE svg PUBLIC "-//W3C//DTD SVG 20010904//EN"
 "http://www.w3.org/TR/2001/REC-SVG-20010904/DTD/svg10.dtd">
<svg version="1.0" xmlns="http://www.w3.org/2000/svg"
 width="300.000000pt" height="300.000000pt" viewBox="0 0 300.000000 300.000000"
 preserveAspectRatio="xMidYMid meet">
<metadata>
Created by potrace 1.11, written by Peter Selinger 2001-2013
</metadata>
<g transform="translate(0.000000,300.000000) scale(0.100000,-0.100000)"
fill="#000000" stroke="none">
<path d="M0 1500 l0 -1500 1500 0 1500 0 0 1500 0 1500 -1500 0 -1500 0 0
-1500z m2107 725 c50 -21 72 -42 94 -90 58 -126 -29 -258 -169 -258 -97 0
-177 83 -175 183 2 128 132 214 250 165z m-548 -146 c65 -15 143 -56 195 -103
43 -39 116 -146 116 -171 0 -6 -33 -19 -74 -29 -87 -20 -164 -55 -266 -121
-119 -76 -143 -85 -245 -85 -89 0 -135 6 -135 19 0 3 95 69 210 145 144 95
208 142 201 149 -17 17 -127 21 -176 7 -24 -7 -62 -28 -83 -46 -71 -60 -123
-66 -162 -17 -31 40 -26 86 14 130 94 104 264 155 405 122z m573 -425 c139
-33 200 -92 151 -146 -22 -25 -50 -23 -119 9 -54 25 -70 27 -184 28 -148 0
-182 -10 -310 -93 -105 -68 -175 -100 -260 -118 -177 -38 -338 -1 -512 117
-33 23 -84 52 -114 65 -64 28 -84 62 -60 100 9 12 25 25 36 29 25 8 124 -36
210 -95 131 -89 247 -120 382 -101 92 13 131 29 238 99 129 84 173 101 330
126 39 6 149 -4 212 -20z m-442 -659 l0 -195 -40 0 -40 0 0 195 0 195 40 0 40
0 0 -195z m138 183 c7 -7 12 -21 12 -33 0 -12 -5 -26 -12 -33 -7 -7 -21 -12
-33 -12 -12 0 -26 5 -33 12 -7 7 -12 21 -12 33 0 12 5 26 12 33 7 7 21 12 33
12 12 0 26 -5 33 -12z m230 -20 c3 -24 0 -28 -23 -28 -17 0 -28 -7 -34 -22
-11 -30 -6 -38 30 -38 24 0 29 -4 29 -25 0 -21 -5 -25 -30 -25 l-30 0 0 -110
0 -110 -40 0 -40 0 0 109 c0 100 -2 109 -20 114 -25 7 -26 37 -1 44 12 3 21
17 25 37 10 51 56 87 106 83 19 -2 26 -8 28 -29z m-1194 8 c46 -19 76 -61 76
-105 0 -79 -58 -131 -146 -131 l-54 0 0 -65 0 -65 -40 0 -40 0 0 190 0 190 85
0 c50 0 99 -6 119 -14z m325 -122 c57 -48 64 -145 15 -204 -53 -63 -155 -62
-208 1 -22 25 -26 41 -26 90 0 96 41 138 137 139 41 0 58 -5 82 -26z m319 1
c56 -47 62 -157 11 -211 -74 -78 -215 -36 -234 70 -10 49 11 111 46 140 25 21
41 26 89 26 48 0 64 -5 88 -25z m322 -110 l0 -135 -35 0 -35 0 0 135 0 135 35
0 35 0 0 -135z m360 54 l33 -81 31 79 c30 77 32 78 68 81 l38 3 -46 -108 c-25
-59 -59 -141 -76 -180 -29 -71 -31 -73 -65 -73 -31 0 -34 2 -27 23 3 12 13 34
20 49 8 15 14 32 14 39 0 6 -22 63 -50 126 -27 63 -50 116 -50 119 0 2 17 4
38 4 l38 0 34 -81z"/>
<path d="M740 1055 l0 -65 40 0 c47 0 80 27 80 65 0 38 -33 65 -80 65 l-40 0
0 -65z"/>
<path d="M1066 1004 c-34 -34 -32 -125 4 -144 51 -27 90 6 90 77 0 68 -55 107
-94 67z"/>
<path d="M1386 1007 c-26 -19 -33 -99 -12 -132 36 -55 106 -20 106 53 0 73
-47 113 -94 79z"/>
</g>
</svg>
